<svg version="1.1" id="Layer_1" xmlns="http://www.w3.org/2000/svg" xmlns:xlink="http://www.w3.org/1999/xlink" x="0px" y="0px"
	 width="100%" viewBox="0 0 500 500" enable-background="new 0 0 500 500" xml:space="preserve">
<path fill="#FFFFFF" opacity="1.000000" stroke="none" 
	d="
M279.000000,501.000000 
	C186.000015,501.000000 93.500046,501.000000 1.000050,501.000000 
	C1.000033,334.333405 1.000033,167.666794 1.000017,1.000139 
	C167.666565,1.000093 334.333130,1.000093 500.999756,1.000046 
	C500.999847,167.666519 500.999847,334.333038 500.999939,500.999786 
	C427.166656,501.000000 353.333344,501.000000 279.000000,501.000000 
M436.380188,325.893555 
	C444.983002,304.910095 449.799866,283.034119 450.774902,260.433441 
	C452.435181,221.948303 443.746613,185.865646 424.802063,152.230865 
	C371.677765,57.912121 250.972122,23.242231 155.841339,75.067360 
	C77.098473,117.964714 36.739979,206.424316 55.840282,294.254211 
	C77.503525,393.869446 173.648422,463.109650 274.393738,449.553192 
	C350.833008,439.267395 404.876312,397.426208 436.380188,325.893555 
z"/>
<path fill="#034CAE" opacity="1.000000" stroke="none" 
	d="
M436.238342,326.252747 
	C404.876312,397.426208 350.833008,439.267395 274.393738,449.553192 
	C173.648422,463.109650 77.503525,393.869446 55.840282,294.254211 
	C36.739979,206.424316 77.098473,117.964714 155.841339,75.067360 
	C250.972122,23.242231 371.677765,57.912121 424.802063,152.230865 
	C443.746613,185.865646 452.435181,221.948303 450.774902,260.433441 
	C449.799866,283.034119 444.983002,304.910095 436.238342,326.252747 
M161.335373,404.030853 
	C164.561783,405.675018 167.788208,407.319183 171.492462,409.463318 
	C203.100891,425.604126 236.623154,430.834137 271.725555,427.030426 
	C306.298248,423.284119 337.281128,410.355927 363.548126,387.883148 
	C415.399170,343.521698 436.296112,286.898132 425.299988,219.558380 
	C417.651886,172.721741 393.450836,135.067490 354.868225,107.627594 
	C300.475464,68.943542 241.254089,62.638424 180.237076,88.582138 
	C98.292618,123.423973 56.405792,212.870956 80.221733,298.685120 
	C92.891388,344.336731 120.343872,379.114655 161.335373,404.030853 
z"/>
<path fill="#FCFDFE" opacity="1.000000" stroke="none" 
	d="
M160.867249,403.601746 
	C120.343872,379.114655 92.891388,344.336731 80.221733,298.685120 
	C56.405792,212.870956 98.292618,123.423973 180.237076,88.582138 
	C241.254089,62.638424 300.475464,68.943542 354.868225,107.627594 
	C393.450836,135.067490 417.651886,172.721741 425.299988,219.558380 
	C436.296112,286.898132 415.399170,343.521698 363.548126,387.883148 
	C337.281128,410.355927 306.298248,423.284119 271.725555,427.030426 
	C236.623154,430.834137 203.100891,425.604126 171.317902,408.856873 
	C173.113983,407.492798 175.084610,406.735168 177.415771,406.013977 
	C183.145325,408.115631 188.514343,410.180817 194.142944,412.498505 
	C237.047852,427.374664 279.463898,426.372070 320.312836,407.565277 
	C380.726471,379.751007 414.362213,331.592133 421.646027,265.660675 
	C424.901276,236.194885 419.296326,207.654694 407.227081,180.513763 
	C400.443420,165.258743 391.617706,151.298111 380.107605,138.349411 
	C378.102325,141.090027 376.364319,143.465393 374.350983,146.016724 
	C371.363403,149.742310 368.651154,153.291916 365.630676,156.990082 
	C364.644073,158.084869 363.997498,159.055878 363.282715,159.973740 
	C331.464966,200.830322 299.696594,241.725601 267.750977,282.481964 
	C263.576782,287.807434 260.004578,293.167694 259.084137,300.400635 
	C258.671722,302.061707 258.307922,303.318054 258.010284,304.589905 
	C251.695465,331.574829 245.259277,358.532806 239.226715,385.580750 
	C238.382324,389.366730 236.898102,389.916809 233.625046,389.896759 
	C214.813797,389.781433 196.001465,389.839783 177.189514,389.839294 
	C170.898895,389.839142 164.608276,389.839264 158.197830,389.839264 
	C160.298508,381.038208 162.354950,372.662140 164.292892,364.258728 
	C170.268127,338.348541 176.214951,312.431763 182.105606,286.502258 
	C182.476227,284.870880 182.760864,282.942963 182.251022,281.435181 
	C179.660965,273.775421 176.887451,266.173798 174.007339,258.616913 
	C168.086807,243.082596 161.953415,227.628876 156.098404,212.070206 
	C147.949203,190.415161 139.975006,168.694260 131.979858,146.625854 
	C130.787521,142.680969 129.541214,139.111801 128.161011,135.159195 
	C156.317200,135.159195 183.961761,135.112305 211.604416,135.319794 
	C212.788193,135.328674 214.590210,137.500122 215.028946,138.982437 
	C218.849182,151.889359 222.415619,164.871292 226.073517,177.826401 
	C229.356171,189.452423 232.659088,201.072754 236.130020,213.320023 
	C237.494980,211.346680 238.448395,210.007233 239.362228,208.641296 
	C254.815155,185.543594 270.334991,162.489975 285.628632,139.287247 
	C287.728607,136.101318 289.907990,135.040482 293.655914,135.065475 
	C319.648224,135.238815 345.642212,135.160629 371.635681,135.147659 
	C373.197449,135.146881 374.759155,135.012634 377.046295,134.906998 
	C375.714722,133.462982 374.966370,132.627060 374.192413,131.815582 
	C327.222809,82.567520 252.944794,65.879791 187.433197,91.714127 
	C112.078506,121.430069 67.029091,202.881821 82.434547,282.225006 
	C89.631569,319.292053 106.852318,350.988892 134.587036,376.704834 
	C140.922012,382.578644 148.175262,387.462097 155.226181,393.045471 
	C157.012390,394.411133 158.578293,395.532715 160.110840,397.091553 
	C160.340744,399.553131 160.603989,401.577454 160.867249,403.601746 
z"/>
<path fill="#EEF1F5" opacity="1.000000" stroke="none" 
	d="
M161.101303,403.816284 
	C160.603989,401.577454 160.340744,399.553131 160.456757,397.188354 
	C166.242416,399.891083 171.648834,402.934296 177.055252,405.977509 
	C175.084610,406.735168 173.113983,407.492798 171.078979,408.606873 
	C167.788208,407.319183 164.561783,405.675018 161.101303,403.816284 
z"/>
<path fill="#004AAD" opacity="1.000000" stroke="none" 
	d="
M374.626312,145.840744 
	C376.364319,143.465393 378.102325,141.090027 380.107605,138.349411 
	C391.617706,151.298111 400.443420,165.258743 407.227081,180.513763 
	C419.296326,207.654694 424.901276,236.194885 421.646027,265.660675 
	C414.362213,331.592133 380.726471,379.751007 320.312836,407.565277 
	C279.463898,426.372070 237.047852,427.374664 194.416016,412.161621 
	C204.000412,411.049927 213.571976,410.539886 223.141998,410.002411 
	C237.336899,409.205231 244.954727,403.602386 248.459213,389.811859 
	C253.672089,369.298706 258.200470,348.611786 263.031677,328.001495 
	C265.456818,317.655701 267.960815,307.373810 274.729309,298.721039 
	C290.022827,279.169891 305.201996,259.529327 320.446808,239.940033 
	C333.352509,223.356476 346.330048,206.828659 359.185883,190.206589 
	C365.259766,182.353317 371.577057,174.630707 376.954865,166.312775 
	C382.376465,157.926941 383.008667,150.469193 374.626312,145.840744 
z"/>
<path fill="#014AAD" opacity="1.000000" stroke="none" 
	d="
M155.005875,392.801361 
	C148.175262,387.462097 140.922012,382.578644 134.587036,376.704834 
	C106.852318,350.988892 89.631569,319.292053 82.434547,282.225006 
	C67.029091,202.881821 112.078506,121.430069 187.433197,91.714127 
	C252.944794,65.879791 327.222809,82.567520 374.192413,131.815582 
	C374.966370,132.627060 375.714722,133.462982 377.046295,134.906998 
	C374.759155,135.012634 373.197449,135.146881 371.635681,135.147659 
	C345.642212,135.160629 319.648224,135.238815 293.655914,135.065475 
	C289.907990,135.040482 287.728607,136.101318 285.628632,139.287247 
	C270.334991,162.489975 254.815155,185.543594 239.362228,208.641296 
	C238.448395,210.007233 237.494980,211.346680 236.130020,213.320023 
	C232.659088,201.072754 229.356171,189.452423 226.073517,177.826401 
	C222.415619,164.871292 218.849182,151.889359 215.028946,138.982437 
	C214.590210,137.500122 212.788193,135.328674 211.604416,135.319794 
	C183.961761,135.112305 156.317200,135.159195 128.161011,135.159195 
	C129.541214,139.111801 130.787521,142.680969 131.630554,146.667969 
	C125.635796,151.255600 124.777367,157.124573 126.664879,163.086655 
	C130.465012,175.090164 134.725021,186.957535 139.106125,198.765762 
	C148.797729,224.887115 158.755112,250.909851 168.444473,277.032043 
	C171.549973,285.404297 175.444901,293.950806 173.683914,303.057739 
	C170.233917,320.899200 165.892456,338.566345 162.131500,356.350342 
	C159.570282,368.461365 157.368423,380.648346 155.005875,392.801361 
z"/>
<path fill="#0048A7" opacity="1.000000" stroke="none" 
	d="
M155.226181,393.045471 
	C157.368423,380.648346 159.570282,368.461365 162.131500,356.350342 
	C165.892456,338.566345 170.233917,320.899200 173.683914,303.057739 
	C175.444901,293.950806 171.549973,285.404297 168.444473,277.032043 
	C158.755112,250.909851 148.797729,224.887115 139.106125,198.765762 
	C134.725021,186.957535 130.465012,175.090164 126.664879,163.086655 
	C124.777367,157.124573 125.635796,151.255600 131.576584,147.043686 
	C139.975006,168.694260 147.949203,190.415161 156.098404,212.070206 
	C161.953415,227.628876 168.086807,243.082596 174.007339,258.616913 
	C176.887451,266.173798 179.660965,273.775421 182.251022,281.435181 
	C182.760864,282.942963 182.476227,284.870880 182.105606,286.502258 
	C176.214951,312.431763 170.268127,338.348541 164.292892,364.258728 
	C162.354950,372.662140 160.298508,381.038208 158.197830,389.839264 
	C164.608276,389.839264 170.898895,389.839142 177.189514,389.839294 
	C196.001465,389.839783 214.813797,389.781433 233.625046,389.896759 
	C236.898102,389.916809 238.382324,389.366730 239.226715,385.580750 
	C245.259277,358.532806 251.695465,331.574829 258.010284,304.589905 
	C258.307922,303.318054 258.671722,302.061707 259.437805,300.391418 
	C260.663483,299.489563 261.682068,299.167999 262.215332,298.473724 
	C272.901276,284.560272 283.467865,270.554840 294.190247,256.669708 
	C305.216553,242.390945 316.403748,228.236542 327.484039,213.999268 
	C339.173859,198.978806 350.797485,183.906799 362.502686,168.898392 
	C365.307281,165.302338 366.656189,161.391769 365.938904,156.841537 
	C368.651154,153.291916 371.363403,149.742310 374.350983,146.016724 
	C383.008667,150.469193 382.376465,157.926941 376.954865,166.312775 
	C371.577057,174.630707 365.259766,182.353317 359.185883,190.206589 
	C346.330048,206.828659 333.352509,223.356476 320.446808,239.940033 
	C305.201996,259.529327 290.022827,279.169891 274.729309,298.721039 
	C267.960815,307.373810 265.456818,317.655701 263.031677,328.001495 
	C258.200470,348.611786 253.672089,369.298706 248.459213,389.811859 
	C244.954727,403.602386 237.336899,409.205231 223.141998,410.002411 
	C213.571976,410.539886 204.000412,411.049927 194.156448,411.909119 
	C188.514343,410.180817 183.145325,408.115631 177.415771,406.013977 
	C171.648834,402.934296 166.242416,399.891083 160.490082,396.751099 
	C158.578293,395.532715 157.012390,394.411133 155.226181,393.045471 
z"/>
<path fill="#0449A6" opacity="1.000000" stroke="none" 
	d="
M365.630676,156.990082 
	C366.656189,161.391769 365.307281,165.302338 362.502686,168.898392 
	C350.797485,183.906799 339.173859,198.978806 327.484039,213.999268 
	C316.403748,228.236542 305.216553,242.390945 294.190247,256.669708 
	C283.467865,270.554840 272.901276,284.560272 262.215332,298.473724 
	C261.682068,299.167999 260.663483,299.489563 259.517212,299.993896 
	C260.004578,293.167694 263.576782,287.807434 267.750977,282.481964 
	C299.696594,241.725601 331.464966,200.830322 363.282715,159.973740 
	C363.997498,159.055878 364.644073,158.084869 365.630676,156.990082 
z"/>
</svg>